<?xml version="1.0" encoding="UTF-8"?>
<svg id="Layer_1" xmlns="http://www.w3.org/2000/svg" xmlns:xlink="http://www.w3.org/1999/xlink" viewBox="0 0 31.19 28.79">
  <defs>
    <style>
      .cls-1 {
        fill: none;
      }

      .cls-2 {
        fill: #ef4379;
      }

      .cls-3 {
        clip-path: url(#clippath-1);
      }

      .cls-4 {
        isolation: isolate;
      }

      .cls-5 {
        fill: #cadb2e;
      }

      .cls-6 {
        clip-path: url(#clippath-2);
      }

      .cls-7 {
        clip-path: url(#clippath);
      }
    </style>
    <clipPath id="clippath">
      <polygon class="cls-1" points="29.73 21.27 23.1 25.21 6.76 28.75 13.11 24.85 29.73 21.27"/>
    </clipPath>
    <clipPath id="clippath-1">
      <polygon class="cls-1" points="10.68 23.27 4.38 27.2 .06 10.15 6.27 5.9 10.68 23.27"/>
    </clipPath>
    <clipPath id="clippath-2">
      <path class="cls-1" d="M24.29.04c.26-.05.53-.05.78,0,.25.05.49.15.71.3.22.14.41.33.57.54.16.22.28.47.35.74l4.42,17.25c.07.27.08.55.05.81s-.12.5-.25.72-.29.41-.49.56-.44.26-.7.32l-16.62,3.59c-.27.06-.53.06-.79,0s-.5-.15-.72-.3-.42-.33-.57-.55-.28-.47-.35-.75L6.27,5.9c-.07-.28-.08-.55-.05-.81s.12-.5.25-.72.3-.41.5-.55.44-.26.71-.31L24.29.04Z"/>
    </clipPath>
  </defs>
  <g class="cls-4">
    <path class="cls-5" d="M30.28,21.05c-2.21,1.32-4.42,2.63-6.63,3.95-.04.02-.08.05-.13.07s-.09.04-.13.06-.09.03-.14.05-.09.03-.14.04l6.62-3.94s.1-.02.15-.04.09-.03.14-.05.09-.04.13-.06.09-.04.13-.07h0Z"/>
    <path class="cls-5" d="M.8,8.08c2.07-1.43,4.14-2.86,6.21-4.29-.16.11-.3.24-.42.4s-.21.32-.28.51-.11.38-.12.58.01.41.06.62L.06,10.15c-.05-.21-.07-.41-.06-.61s.05-.39.12-.57.16-.35.27-.5.25-.28.41-.39h0Z"/>
    <g>
      <polygon class="cls-5" points="29.73 21.27 23.1 25.21 6.76 28.75 13.11 24.85 29.73 21.27"/>
      <g class="cls-4">
        <g class="cls-7">
          <g>
            <polyline class="cls-2" points="18.41 25.85 19.44 25.62 20.47 25.4 20.8 25.2 21.14 25 21.65 24.89 22.17 24.78 22.5 24.58 22.84 24.37 23.36 24.26 23.87 24.15 24.21 23.95 24.55 23.75 25.07 23.63 25.58 23.52 25.92 23.32 26.27 23.12 25.75 23.23 25.23 23.34 25.57 23.14 25.91 22.93 25.39 23.05 24.87 23.16 25.21 22.95 25.56 22.75 25.04 22.86 24.51 22.97 24.86 22.77 25.2 22.56 24.16 22.79 23.11 23.02 22.77 23.22 22.43 23.42 22.95 23.31 23.48 23.2 23.14 23.4 22.8 23.61 23.31 23.49 23.83 23.38 23.49 23.59 23.16 23.79 23.68 23.68 24.19 23.56 23.85 23.77 23.52 23.97 23 24.08 22.48 24.2 22.14 24.4 21.81 24.6 21.29 24.71 20.77 24.82 20.44 25.02 20.1 25.22 19.59 25.34 19.07 25.45 18.74 25.65 18.41 25.85"/>
            <polyline class="cls-2" points="11.41 27.36 12.44 27.14 13.48 26.91 13.8 26.71 14.13 26.52 13.61 26.63 13.09 26.74 13.42 26.54 13.75 26.34 13.23 26.45 12.71 26.57 13.04 26.36 13.37 26.16 12.85 26.28 12.33 26.39 12.66 26.19 12.98 25.99 13.51 25.88 14.03 25.76 14.36 25.56 14.69 25.36 15.21 25.24 15.74 25.13 16.07 24.93 16.4 24.73 16.93 24.61 17.45 24.5 17.78 24.3 18.12 24.09 17.07 24.32 16.02 24.55 15.69 24.75 15.36 24.95 14.83 25.07 14.31 25.18 13.98 25.38 13.64 25.58 13.12 25.7 12.6 25.81 12.27 26.01 11.94 26.21 11.42 26.33 10.9 26.44 10.57 26.64 10.24 26.84 10.76 26.73 11.28 26.62 10.96 26.82 10.63 27.02 11.15 26.9 11.67 26.79 11.35 26.99 11.02 27.19 11.54 27.08 12.06 26.96 11.73 27.16 11.41 27.36"/>
            <polyline class="cls-2" points="14.79 26.83 23.13 22.75 22.35 22.86 14.02 26.94 14.79 26.83"/>
          </g>
        </g>
      </g>
    </g>
    <g>
      <polygon class="cls-5" points="10.68 23.27 4.38 27.2 .06 10.15 6.27 5.9 10.68 23.27"/>
      <g class="cls-4">
        <g class="cls-3">
          <g>
            <path class="cls-2" d="M2.49,12.99l-.88.59-.71-2.79.88-.6h0s.71,2.79.71,2.79M.59,10.6l.88,3.48s.03.09.04.13.03.07.05.09.04.04.05.05.04,0,.05,0l.33-.22.18.7s.03.09.04.13.03.07.05.09.04.04.05.05.04,0,.05,0c.01,0,.03-.03.04-.06s.01-.06.02-.1,0-.08,0-.13-.01-.09-.02-.14l-.18-.7.55-.37s.03-.03.04-.06.01-.06.02-.1,0-.08,0-.13-.01-.09-.02-.14l-.44-1.75.22-.15s.03-.03.04-.06.01-.06.02-.1,0-.08,0-.13-.01-.09-.03-.14-.03-.09-.04-.13-.03-.07-.05-.09-.04-.04-.05-.05-.04,0-.05,0l-.22.15-.27-1.05s-.03-.09-.04-.13-.03-.07-.05-.09-.04-.04-.05-.05-.04,0-.05,0l-1.1.75s-.03.03-.04.06-.01.06-.02.1,0,.08,0,.13.01.09.03.14"/>
            <path class="cls-2" d="M6.52,10.28l-.91.61-.72-2.82.9-.62h0s.72,2.83.72,2.83M4.61,9.51s.03.09.04.13.04.07.05.1.04.04.06.05.04,0,.05,0l.22-.15.45,1.76s.03.09.04.13.04.07.05.1.04.04.06.05.04,0,.05,0l.56-.38.18.71s.03.09.04.13.04.07.05.1.04.04.06.05.04,0,.05,0,.03-.03.04-.06.01-.06.02-.1,0-.08,0-.13-.01-.09-.03-.14l-.18-.71.34-.23s.03-.03.04-.06.01-.06.02-.1,0-.08,0-.13-.01-.09-.03-.14l-.9-3.53s-.03-.09-.04-.13-.04-.07-.05-.1-.04-.04-.06-.05-.04,0-.05,0l-1.13.77s-.03.03-.04.06-.01.06-.02.1,0,.08,0,.13.01.09.03.14l.27,1.06-.22.15s-.03.03-.04.06-.01.06-.02.1,0,.08,0,.13c0,.05.01.09.03.14"/>
            <path class="cls-2" d="M2.77,17.15l.59,2.33s.03.09.04.13.03.07.05.09.04.04.05.05.04,0,.05,0,.03-.03.04-.06.01-.06.02-.1,0-.08,0-.13-.01-.09-.03-.14l-.59-2.33s-.03-.09-.04-.13-.03-.07-.05-.09-.04-.04-.05-.05-.04,0-.05,0-.03.03-.04.06-.01.06-.02.1,0,.08,0,.13.01.09.03.14"/>
            <path class="cls-2" d="M5.68,25.57l-.89.56-.71-2.79.89-.57h0s.71,2.8.71,2.8M3.76,23.14l.88,3.49s.03.09.04.13.03.07.05.1.04.04.05.05.04.01.05,0l1.12-.7s.03-.03.04-.06.01-.06.02-.1,0-.08,0-.13-.01-.09-.02-.14l-.27-1.05.22-.14s.03-.03.04-.06.01-.06.02-.1,0-.08,0-.13-.01-.09-.03-.14-.03-.09-.04-.13-.03-.07-.05-.1-.04-.04-.05-.05-.04-.01-.05,0l-.22.14-.44-1.75s-.03-.09-.04-.13-.03-.07-.05-.1-.04-.04-.05-.05-.04-.01-.05,0l-.56.36-.18-.7s-.03-.09-.04-.13-.03-.07-.05-.09-.04-.04-.05-.05-.04,0-.05,0-.03.03-.04.06-.01.06-.02.1,0,.08,0,.13.01.09.02.14l.18.7-.33.21s-.03.03-.04.06-.01.06-.02.1,0,.08,0,.13.01.09.02.14"/>
            <path class="cls-2" d="M6.5,23.84s.03.09.04.13.03.07.05.1.04.04.05.05.04.01.05,0l.75-.47s.03-.03.04-.05.01-.06.02-.1,0-.08,0-.13-.01-.09-.03-.14-.03-.09-.04-.13-.04-.07-.05-.1-.04-.04-.06-.05-.04-.01-.05,0l-.75.48s-.03.03-.04.06-.01.06-.02.1,0,.08,0,.13.01.09.03.14"/>
            <path class="cls-2" d="M9.76,23.02l-.92.57-.72-2.83.91-.58h0s.72,2.83.72,2.83M8,22.89s.03.09.04.13.04.07.05.1.04.04.06.05.04.01.05,0l.23-.14.27,1.06s.03.09.04.13.04.07.05.1.04.04.06.05.04.01.05,0l1.14-.71s.03-.03.04-.06.01-.06.02-.1,0-.08,0-.13-.01-.09-.03-.14l-.9-3.54s-.03-.09-.04-.13-.04-.07-.05-.1-.04-.04-.06-.05-.04-.01-.05,0l-.34.22-.18-.71s-.03-.09-.04-.13-.04-.07-.05-.1-.04-.04-.06-.05-.04,0-.05,0-.03.03-.04.06c-.01.03-.01.06-.02.1s0,.08,0,.13.01.09.03.14l.18.71-.57.36s-.03.03-.04.06-.01.06-.02.1,0,.08,0,.13.01.09.03.14l.45,1.76-.23.14s-.03.03-.04.06-.01.06-.02.1,0,.08,0,.13.01.09.03.14"/>
            <path class="cls-2" d="M7.02,14.35l.6,2.36s.03.09.04.13.04.07.05.1.04.04.06.05.04,0,.05,0,.03-.03.04-.06.01-.06.02-.1,0-.08,0-.13-.01-.09-.03-.14l-.6-2.36s-.03-.09-.04-.13-.04-.07-.05-.1-.04-.04-.06-.05-.04,0-.05,0c-.02.01-.03.03-.04.06s-.01.06-.02.1,0,.08,0,.13.01.09.03.14"/>
            <path class="cls-2" d="M3.12,10.52s.03.09.04.13.03.07.05.09.04.04.05.05.04,0,.05,0l.74-.5s.03-.03.04-.06.01-.06.02-.1,0-.08,0-.13-.01-.09-.03-.14-.03-.09-.04-.13-.03-.07-.05-.09-.04-.04-.05-.05-.04,0-.05,0l-.74.51s-.03.03-.04.06-.01.06-.02.1,0,.08,0,.13.01.09.03.14"/>
          </g>
        </g>
      </g>
    </g>
    <path class="cls-5" d="M13.11,24.85l-6.34,3.9c-.26.06-.52.06-.78,0s-.49-.15-.71-.29-.41-.32-.56-.54-.27-.46-.34-.73l6.3-3.93c.07.28.19.53.35.75s.35.4.57.55.46.25.72.3.52.05.79,0h0Z"/>
    <g>
      <path class="cls-5" d="M24.29.04c.26-.05.53-.05.78,0s.49.15.71.3.41.33.57.54.28.47.35.74l4.42,17.25c.07.27.08.55.05.81s-.12.5-.25.72-.29.41-.49.56-.44.26-.7.32l-16.62,3.59c-.27.06-.53.06-.79,0s-.5-.15-.72-.3-.42-.33-.57-.55-.28-.47-.35-.75L6.27,5.9c-.07-.28-.08-.55-.05-.81s.12-.5.25-.72.3-.41.5-.55.44-.26.71-.31L24.29.04Z"/>
      <g class="cls-4">
        <g class="cls-6">
          <g>
            <polyline class="cls-2" points="15.92 6.08 14.94 6.29 15.19 7.29 16.17 7.08 15.92 6.08"/>
            <polyline class="cls-2" points="17.15 6.88 16.17 7.08 16.43 8.08 17.41 7.87 17.15 6.88"/>
            <polyline class="cls-2" points="18.38 7.67 17.41 7.87 17.66 8.87 18.64 8.66 18.38 7.67"/>
            <polyline class="cls-2" points="19.62 8.46 18.64 8.66 18.89 9.66 19.87 9.45 19.62 8.46"/>
            <polyline class="cls-2" points="20.85 9.25 19.87 9.45 20.12 10.45 21.1 10.25 20.85 9.25"/>
            <polyline class="cls-2" points="22.08 10.04 21.1 10.25 21.36 11.24 22.33 11.03 22.08 10.04"/>
            <polyline class="cls-2" points="23.31 10.83 22.33 11.03 22.59 12.03 23.56 11.82 23.31 10.83"/>
            <polyline class="cls-2" points="13.49 4.67 12.51 4.87 16.29 19.69 17.27 19.48 17.01 18.48 17.99 18.27 17.74 17.27 16.76 17.48 13.96 6.5 14.94 6.29 14.69 5.29 13.71 5.5 13.49 4.67"/>
            <polyline class="cls-2" points="20.42 15.65 19.44 15.85 19.95 17.85 20.93 17.64 20.42 15.65"/>
            <polyline class="cls-2" points="19.19 14.86 18.21 15.06 18.46 16.06 19.44 15.85 19.19 14.86"/>
            <polyline class="cls-2" points="18.46 16.06 17.48 16.27 17.74 17.27 18.72 17.06 18.46 16.06"/>
            <polyline class="cls-2" points="23.35 15.02 22.37 15.23 22.88 17.22 23.86 17.01 23.35 15.02"/>
            <polyline class="cls-2" points="24.83 16.81 23.86 17.01 24.33 18.84 25.3 18.63 24.83 16.81"/>
            <polyline class="cls-2" points="21.91 17.43 20.93 17.64 21.4 19.47 22.37 19.26 21.91 17.43"/>
            <polyline class="cls-2" points="24.33 18.84 23.35 19.05 22.37 19.26 22.63 20.26 23.61 20.05 24.58 19.84 24.33 18.84"/>
            <polyline class="cls-2" points="24.54 11.62 23.56 11.82 23.82 12.82 20.89 13.44 21.4 15.44 22.37 15.23 22.12 14.23 26.02 13.4 25.76 12.41 24.79 12.61 24.54 11.62"/>
          </g>
        </g>
      </g>
    </g>
  </g>
</svg>